<svg xmlns="http://www.w3.org/2000/svg" version="1.1" xmlns:xlink="http://www.w3.org/1999/xlink" xmlns:svgjs="http://svgjs.dev/svgjs" width="1000" height="358" viewBox="0 0 1000 358"><g transform="matrix(1,0,0,1,-0.6060402262378375,0.42174535652807776)"><svg viewBox="0 0 396 142" data-background-color="#000000" preserveAspectRatio="xMidYMid meet" height="358" width="1000" xmlns="http://www.w3.org/2000/svg" xmlns:xlink="http://www.w3.org/1999/xlink"><g id="tight-bounds" transform="matrix(1,0,0,1,0.23999192959018956,-0.16727726173922974)"><svg viewBox="0 0 395.52 142.3345617327643" height="142.3345617327643" width="395.52"><g><svg viewBox="0 0 579.092403809075 208.39619614415872" height="142.3345617327643" width="395.52"><g transform="matrix(1,0,0,1,183.57240380907513,28.801500335408335)"><svg viewBox="0 0 395.5199999999999 150.79319547334205" height="150.79319547334205" width="395.5199999999999"><g><svg viewBox="0 0 395.5199999999999 150.79319547334205" height="150.79319547334205" width="395.5199999999999"><g><svg viewBox="0 0 395.5199999999999 105.35159817351597" height="105.35159817351597" width="395.5199999999999"><g transform="matrix(1,0,0,1,0,0)"><svg width="395.5199999999999" viewBox="1.0499999523162842 -43.349998474121094 164.239990234375 43.75" height="105.35159817351597" data-palette-color="#efefef"><g class="undefined-text-0" data-fill-palette-color="primary" id="text-0"><path d="M12.1 0.4Q6.25 0.4 3.65-2.5 1.05-5.4 1.05-11.85L1.05-11.85 1.05-16.05 9.5-16.05 9.5-10.7Q9.5-7.5 11.55-7.5L11.55-7.5Q12.7-7.5 13.15-8.18 13.6-8.85 13.6-10.45L13.6-10.45Q13.6-12.55 13.1-13.93 12.6-15.3 11.83-16.23 11.05-17.15 9.05-19.1L9.05-19.1 5.35-22.8Q1.05-27 1.05-32.1L1.05-32.1Q1.05-37.6 3.58-40.48 6.1-43.35 10.95-43.35L10.95-43.35Q16.75-43.35 19.3-40.28 21.85-37.2 21.85-30.65L21.85-30.65 13.1-30.65 13.05-33.6Q13.05-34.45 12.58-34.95 12.1-35.45 11.25-35.45L11.25-35.45Q10.25-35.45 9.75-34.9 9.25-34.35 9.25-33.4L9.25-33.4Q9.25-31.3 11.65-29.05L11.65-29.05 16.65-24.25Q18.4-22.55 19.55-21.03 20.7-19.5 21.4-17.43 22.1-15.35 22.1-12.5L22.1-12.5Q22.1-6.15 19.78-2.88 17.45 0.4 12.1 0.4L12.1 0.4ZM33.35 0L24.95 0 24.95-42.95 33.8-42.95 37.75-22.4 37.75-42.95 46.05-42.95 46.05 0 37.65 0 33.35-21.5 33.35 0ZM57.05 0L48.7 0 52.85-42.95 67.4-42.95 71.5 0 63.35 0 62.75-6.95 57.55-6.95 57.05 0ZM59.8-35.65L58.2-13.8 62.1-13.8 60.2-35.65 59.8-35.65ZM74.09 0L74.09-42.95 85.44-42.95Q90.59-42.95 92.79-39.63 94.99-36.3 94.99-29.9L94.99-29.9Q94.99-23.5 93.04-20.25 91.09-17 86.04-17L86.04-17 82.54-17 82.54 0 74.09 0ZM82.54-24.75L83.04-24.75Q84.59-24.75 85.32-25.33 86.04-25.9 86.27-26.98 86.49-28.05 86.49-30.05L86.49-30.05Q86.49-32.75 85.89-33.95 85.29-35.15 83.49-35.15L83.49-35.15 82.54-35.15 82.54-24.75ZM107.89 0.4Q102.04 0.4 99.44-2.5 96.84-5.4 96.84-11.85L96.84-11.85 96.84-16.05 105.29-16.05 105.29-10.7Q105.29-7.5 107.34-7.5L107.34-7.5Q108.49-7.5 108.94-8.18 109.39-8.85 109.39-10.45L109.39-10.45Q109.39-12.55 108.89-13.93 108.39-15.3 107.62-16.23 106.84-17.15 104.84-19.1L104.84-19.1 101.14-22.8Q96.84-27 96.84-32.1L96.84-32.1Q96.84-37.6 99.37-40.48 101.89-43.35 106.74-43.35L106.74-43.35Q112.54-43.35 115.09-40.28 117.64-37.2 117.64-30.65L117.64-30.65 108.89-30.65 108.84-33.6Q108.84-34.45 108.37-34.95 107.89-35.45 107.04-35.45L107.04-35.45Q106.04-35.45 105.54-34.9 105.04-34.35 105.04-33.4L105.04-33.4Q105.04-31.3 107.44-29.05L107.44-29.05 112.44-24.25Q114.19-22.55 115.34-21.03 116.49-19.5 117.19-17.43 117.89-15.35 117.89-12.5L117.89-12.5Q117.89-6.15 115.57-2.88 113.24 0.4 107.89 0.4L107.89 0.4ZM130.74 0.4Q126.04 0.4 123.21-2.55 120.39-5.5 120.39-10.65L120.39-10.65 120.39-30.45Q120.39-36.85 122.94-40.1 125.49-43.35 130.94-43.35L130.94-43.35Q135.69-43.35 138.59-40.75 141.49-38.15 141.49-33.25L141.49-33.25 141.49-25.85 132.94-25.85 132.94-32.2Q132.94-34.05 132.49-34.75 132.04-35.45 130.94-35.45L130.94-35.45Q129.79-35.45 129.36-34.65 128.94-33.85 128.94-32.3L128.94-32.3 128.94-10.75Q128.94-9.05 129.44-8.28 129.94-7.5 130.94-7.5L130.94-7.5Q132.94-7.5 132.94-10.75L132.94-10.75 132.94-18.5 141.59-18.5 141.59-10.4Q141.59 0.4 130.74 0.4L130.74 0.4ZM154.69 0.4Q149.49 0.4 146.79-2.78 144.09-5.95 144.09-11.7L144.09-11.7 144.09-32.15Q144.09-37.7 146.79-40.53 149.49-43.35 154.69-43.35L154.69-43.35Q159.89-43.35 162.59-40.53 165.29-37.7 165.29-32.15L165.29-32.15 165.29-11.7Q165.29-5.9 162.59-2.75 159.89 0.4 154.69 0.4L154.69 0.4ZM154.69-7.5Q155.84-7.5 156.24-8.5 156.64-9.5 156.64-11.3L156.64-11.3 156.64-32.3Q156.64-33.7 156.26-34.58 155.89-35.45 154.74-35.45L154.74-35.45Q152.59-35.45 152.59-32.2L152.59-32.2 152.59-11.25Q152.59-9.4 153.04-8.45 153.49-7.5 154.69-7.5L154.69-7.5Z" fill="#efefef" data-fill-palette-color="primary"></path></g></svg></g></svg></g><g transform="matrix(1,0,0,1,0,130.22258206392692)"><svg viewBox="0 0 395.5199999999999 20.570613409415117" height="20.570613409415117" width="395.5199999999999"><g transform="matrix(1,0,0,1,0,0)"><svg width="395.5199999999999" viewBox="1.9000000953674316 -43.349998474121094 841.0999755859375 43.75" height="20.570613409415117" data-palette-color="#efefef"><path d="M9.65 0L1.9 0 1.9-42.95 15-42.95 18.6-16.75 22.2-42.95 35.4-42.95 35.4 0 27.55 0 27.55-30.95 22.6 0 14.9 0 9.65-30.95 9.65 0ZM46.4 0L38.05 0 42.2-42.95 56.75-42.95 60.85 0 52.7 0 52.1-6.95 46.9-6.95 46.4 0ZM49.15-35.65L47.55-13.8 51.45-13.8 49.55-35.65 49.15-35.65ZM63.45 0L63.45-42.95 76.65-42.95Q79.8-42.95 81.52-41.53 83.25-40.1 83.85-37.52 84.45-34.95 84.45-30.95L84.45-30.95Q84.45-27.3 83.5-25.25 82.55-23.2 80.2-22.4L80.2-22.4Q82.15-22 83.02-20.45 83.9-18.9 83.9-16.25L83.9-16.25 83.8 0 75.4 0 75.4-16.8Q75.4-18.6 74.7-19.1 74-19.6 72.15-19.6L72.15-19.6 72.15 0 63.45 0ZM72.2-27.05L74.25-27.05Q76.05-27.05 76.05-30.95L76.05-30.95Q76.05-32.65 75.9-33.5 75.75-34.35 75.35-34.68 74.95-35 74.2-35L74.2-35 72.2-35 72.2-27.05ZM102.99 0L91.24 0 85.94-43 94.14-43 97.29-13.75 100.09-43 108.29-43 102.99 0ZM128.49 0L110.74 0 110.74-42.95 127.94-42.95 127.94-34.65 119.49-34.65 119.49-26.3 127.59-26.3 127.59-18.2 119.49-18.2 119.49-8.35 128.49-8.35 128.49 0ZM148.79 0L131.34 0 131.34-42.95 139.94-42.95 139.94-7.3 148.79-7.3 148.79 0ZM173.08 0.4Q167.23 0.4 164.63-2.5 162.03-5.4 162.03-11.85L162.03-11.85 162.03-16.05 170.48-16.05 170.48-10.7Q170.48-7.5 172.53-7.5L172.53-7.5Q173.68-7.5 174.13-8.18 174.58-8.85 174.58-10.45L174.58-10.45Q174.58-12.55 174.08-13.93 173.58-15.3 172.81-16.23 172.03-17.15 170.03-19.1L170.03-19.1 166.33-22.8Q162.03-27 162.03-32.1L162.03-32.1Q162.03-37.6 164.56-40.48 167.08-43.35 171.93-43.35L171.93-43.35Q177.73-43.35 180.28-40.28 182.83-37.2 182.83-30.65L182.83-30.65 174.08-30.65 174.03-33.6Q174.03-34.45 173.56-34.95 173.08-35.45 172.23-35.45L172.23-35.45Q171.23-35.45 170.73-34.9 170.23-34.35 170.23-33.4L170.23-33.4Q170.23-31.3 172.63-29.05L172.63-29.05 177.63-24.25Q179.38-22.55 180.53-21.03 181.68-19.5 182.38-17.43 183.08-15.35 183.08-12.5L183.08-12.5Q183.08-6.15 180.76-2.88 178.43 0.4 173.08 0.4L173.08 0.4ZM194.33 0L185.93 0 185.93-42.95 194.78-42.95 198.73-22.4 198.73-42.95 207.03-42.95 207.03 0 198.63 0 194.33-21.5 194.33 0ZM218.03 0L209.68 0 213.83-42.95 228.38-42.95 232.48 0 224.33 0 223.73-6.95 218.53-6.95 218.03 0ZM220.78-35.65L219.18-13.8 223.08-13.8 221.18-35.65 220.78-35.65ZM235.08 0L235.08-42.95 246.43-42.95Q251.58-42.95 253.78-39.63 255.98-36.3 255.98-29.9L255.98-29.9Q255.98-23.5 254.03-20.25 252.08-17 247.03-17L247.03-17 243.53-17 243.53 0 235.08 0ZM243.53-24.75L244.03-24.75Q245.58-24.75 246.3-25.33 247.03-25.9 247.25-26.98 247.48-28.05 247.48-30.05L247.48-30.05Q247.48-32.75 246.88-33.95 246.28-35.15 244.48-35.15L244.48-35.15 243.53-35.15 243.53-24.75ZM280.37 0.4Q275.67 0.4 272.85-2.55 270.02-5.5 270.02-10.65L270.02-10.65 270.02-30.45Q270.02-36.85 272.57-40.1 275.12-43.35 280.57-43.35L280.57-43.35Q285.32-43.35 288.22-40.75 291.12-38.15 291.12-33.25L291.12-33.25 291.12-25.85 282.57-25.85 282.57-32.2Q282.57-34.05 282.12-34.75 281.67-35.45 280.57-35.45L280.57-35.45Q279.42-35.45 279-34.65 278.57-33.85 278.57-32.3L278.57-32.3 278.57-10.75Q278.57-9.05 279.07-8.28 279.57-7.5 280.57-7.5L280.57-7.5Q282.57-7.5 282.57-10.75L282.57-10.75 282.57-18.5 291.22-18.5 291.22-10.4Q291.22 0.4 280.37 0.4L280.37 0.4ZM301.27 0L292.92 0 297.07-42.95 311.62-42.95 315.72 0 307.57 0 306.97-6.95 301.77-6.95 301.27 0ZM304.02-35.65L302.42-13.8 306.32-13.8 304.42-35.65 304.02-35.65ZM318.31 0L318.31-42.95 331.52-42.95Q334.67-42.95 336.39-41.53 338.12-40.1 338.72-37.52 339.31-34.95 339.31-30.95L339.31-30.95Q339.31-27.3 338.37-25.25 337.42-23.2 335.06-22.4L335.06-22.4Q337.02-22 337.89-20.45 338.77-18.9 338.77-16.25L338.77-16.25 338.67 0 330.27 0 330.27-16.8Q330.27-18.6 329.56-19.1 328.87-19.6 327.02-19.6L327.02-19.6 327.02 0 318.31 0ZM327.06-27.05L329.12-27.05Q330.92-27.05 330.92-30.95L330.92-30.95Q330.92-32.65 330.77-33.5 330.62-34.35 330.22-34.68 329.81-35 329.06-35L329.06-35 327.06-35 327.06-27.05ZM342.16 0L342.16-42.95 354.01-42.95Q358.61-42.95 360.91-40.4 363.21-37.85 363.26-32.85L363.26-32.85 363.36-12.75Q363.41-6.4 361.16-3.2 358.91 0 353.71 0L353.71 0 342.16 0ZM350.81-7.6L352.31-7.6Q354.66-7.6 354.66-9.9L354.66-9.9 354.66-32.05Q354.66-33.5 354.44-34.23 354.21-34.95 353.61-35.2 353.01-35.45 351.76-35.45L351.76-35.45 350.81-35.45 350.81-7.6ZM378.51 0L378.51-42.95 390.36-42.95Q394.96-42.95 397.26-40.4 399.56-37.85 399.61-32.85L399.61-32.85 399.71-12.75Q399.76-6.4 397.51-3.2 395.26 0 390.06 0L390.06 0 378.51 0ZM387.16-7.6L388.66-7.6Q391.01-7.6 391.01-9.9L391.01-9.9 391.01-32.05Q391.01-33.5 390.78-34.23 390.56-34.95 389.96-35.2 389.36-35.45 388.11-35.45L388.11-35.45 387.16-35.45 387.16-7.6ZM420.9 0L403.15 0 403.15-42.95 420.36-42.95 420.36-34.65 411.9-34.65 411.9-26.3 420-26.3 420-18.2 411.9-18.2 411.9-8.35 420.9-8.35 420.9 0ZM433.75 0.4Q429.05 0.4 426.23-2.55 423.4-5.5 423.4-10.65L423.4-10.65 423.4-30.45Q423.4-36.85 425.95-40.1 428.5-43.35 433.95-43.35L433.95-43.35Q438.7-43.35 441.6-40.75 444.5-38.15 444.5-33.25L444.5-33.25 444.5-25.85 435.95-25.85 435.95-32.2Q435.95-34.05 435.5-34.75 435.05-35.45 433.95-35.45L433.95-35.45Q432.8-35.45 432.38-34.65 431.95-33.85 431.95-32.3L431.95-32.3 431.95-10.75Q431.95-9.05 432.45-8.28 432.95-7.5 433.95-7.5L433.95-7.5Q435.95-7.5 435.95-10.75L435.95-10.75 435.95-18.5 444.6-18.5 444.6-10.4Q444.6 0.4 433.75 0.4L433.75 0.4ZM456 0L447.45 0 447.45-42.95 455.95-42.95 455.95-25.75 459.95-42.95 468.6-42.95 463.8-23.3 469.6 0 460.7 0 456-20.8 456 0ZM482.75 0L482.75-42.95 494.6-42.95Q499.2-42.95 501.5-40.4 503.8-37.85 503.85-32.85L503.85-32.85 503.95-12.75Q504-6.4 501.75-3.2 499.5 0 494.3 0L494.3 0 482.75 0ZM491.4-7.6L492.9-7.6Q495.25-7.6 495.25-9.9L495.25-9.9 495.25-32.05Q495.25-33.5 495.02-34.23 494.8-34.95 494.2-35.2 493.6-35.45 492.35-35.45L492.35-35.45 491.4-35.45 491.4-7.6ZM514.59 0L506.24 0 510.39-42.95 524.94-42.95 529.04 0 520.89 0 520.29-6.95 515.09-6.95 514.59 0ZM517.34-35.65L515.74-13.8 519.64-13.8 517.74-35.65 517.34-35.65ZM543.94 0L535.34 0 535.34-34.7 530.24-34.7 530.24-42.95 549.04-42.95 549.04-34.7 543.94-34.7 543.94 0ZM558.64 0L550.29 0 554.44-42.95 568.99-42.95 573.09 0 564.94 0 564.34-6.95 559.14-6.95 558.64 0ZM561.39-35.65L559.79-13.8 563.69-13.8 561.79-35.65 561.39-35.65ZM575.68 0L575.68-42.95 587.33-42.95Q592.03-42.95 594.16-40.65 596.28-38.35 596.28-33.15L596.28-33.15 596.28-31.25Q596.28-25.1 591.88-23.9L591.88-23.9Q594.58-23.2 595.68-20.65 596.78-18.1 596.78-13.9L596.78-13.9Q596.78-7.05 594.73-3.53 592.68 0 587.33 0L587.33 0 575.68 0ZM584.08-26.8L585.83-26.8Q586.93-26.8 587.33-27.63 587.73-28.45 587.73-29.95L587.73-29.95 587.73-34.25Q587.73-36.35 585.88-36.35L585.88-36.35 584.08-36.35 584.08-26.8ZM584.93-7.55Q588.28-7.55 588.28-10.75L588.28-10.75 588.28-16.1Q588.28-18.05 587.71-19.05 587.13-20.05 585.68-20.05L585.68-20.05 584.08-20.05 584.08-7.6 584.93-7.55ZM606.83 0L598.48 0 602.63-42.95 617.18-42.95 621.28 0 613.13 0 612.53-6.95 607.33-6.95 606.83 0ZM609.58-35.65L607.98-13.8 611.88-13.8 609.98-35.65 609.58-35.65ZM634.08 0.4Q628.23 0.4 625.63-2.5 623.03-5.4 623.03-11.85L623.03-11.85 623.03-16.05 631.48-16.05 631.48-10.7Q631.48-7.5 633.53-7.5L633.53-7.5Q634.68-7.5 635.13-8.18 635.58-8.85 635.58-10.45L635.58-10.45Q635.58-12.55 635.08-13.93 634.58-15.3 633.8-16.23 633.03-17.15 631.03-19.1L631.03-19.1 627.33-22.8Q623.03-27 623.03-32.1L623.03-32.1Q623.03-37.6 625.55-40.48 628.08-43.35 632.93-43.35L632.93-43.35Q638.73-43.35 641.28-40.28 643.83-37.2 643.83-30.65L643.83-30.65 635.08-30.65 635.03-33.6Q635.03-34.45 634.55-34.95 634.08-35.45 633.23-35.45L633.23-35.45Q632.23-35.45 631.73-34.9 631.23-34.35 631.23-33.4L631.23-33.4Q631.23-31.3 633.63-29.05L633.63-29.05 638.63-24.25Q640.38-22.55 641.53-21.03 642.68-19.5 643.38-17.43 644.08-15.35 644.08-12.5L644.08-12.5Q644.08-6.15 641.75-2.88 639.43 0.4 634.08 0.4L634.08 0.4ZM664.68 0L646.93 0 646.93-42.95 664.13-42.95 664.13-34.65 655.68-34.65 655.68-26.3 663.78-26.3 663.78-18.2 655.68-18.2 655.68-8.35 664.68-8.35 664.68 0ZM693.07 0L682.57 0 677.97-42.95 686.37-42.95 688.77-15.85 691.17-42.95 699.17-42.95 701.47-15.85 703.77-42.95 712.27-42.95 707.57 0 697.27 0 695.12-20.7 693.07 0ZM732.57 0L714.82 0 714.82-42.95 732.02-42.95 732.02-34.65 723.57-34.65 723.57-26.3 731.67-26.3 731.67-18.2 723.57-18.2 723.57-8.35 732.57-8.35 732.57 0ZM735.42 0L735.42-42.95 747.07-42.95Q751.77-42.95 753.89-40.65 756.02-38.35 756.02-33.15L756.02-33.15 756.02-31.25Q756.02-25.1 751.62-23.9L751.62-23.9Q754.32-23.2 755.42-20.65 756.52-18.1 756.52-13.9L756.52-13.9Q756.52-7.05 754.47-3.53 752.42 0 747.07 0L747.07 0 735.42 0ZM743.82-26.8L745.57-26.8Q746.67-26.8 747.07-27.63 747.47-28.45 747.47-29.95L747.47-29.95 747.47-34.25Q747.47-36.35 745.62-36.35L745.62-36.35 743.82-36.35 743.82-26.8ZM744.67-7.55Q748.02-7.55 748.02-10.75L748.02-10.75 748.02-16.1Q748.02-18.05 747.44-19.05 746.87-20.05 745.42-20.05L745.42-20.05 743.82-20.05 743.82-7.6 744.67-7.55ZM781.26 0.4Q775.41 0.4 772.81-2.5 770.21-5.4 770.21-11.85L770.21-11.85 770.21-16.05 778.66-16.05 778.66-10.7Q778.66-7.5 780.71-7.5L780.71-7.5Q781.86-7.5 782.31-8.18 782.76-8.85 782.76-10.45L782.76-10.45Q782.76-12.55 782.26-13.93 781.76-15.3 780.99-16.23 780.21-17.15 778.21-19.1L778.21-19.1 774.51-22.8Q770.21-27 770.21-32.1L770.21-32.1Q770.21-37.6 772.74-40.48 775.26-43.35 780.11-43.35L780.11-43.35Q785.91-43.35 788.46-40.28 791.01-37.2 791.01-30.65L791.01-30.65 782.26-30.65 782.21-33.6Q782.21-34.45 781.74-34.95 781.26-35.45 780.41-35.45L780.41-35.45Q779.41-35.45 778.91-34.9 778.41-34.35 778.41-33.4L778.41-33.4Q778.41-31.3 780.81-29.05L780.81-29.05 785.81-24.25Q787.56-22.55 788.71-21.03 789.86-19.5 790.56-17.43 791.26-15.35 791.26-12.5L791.26-12.5Q791.26-6.15 788.94-2.88 786.61 0.4 781.26 0.4L781.26 0.4ZM802.01 0L793.71 0 793.71-42.95 802.01-42.95 802.01 0ZM817.76 0L809.16 0 809.16-34.7 804.06-34.7 804.06-42.95 822.86-42.95 822.86-34.7 817.76-34.7 817.76 0ZM843 0L825.25 0 825.25-42.95 842.45-42.95 842.45-34.65 834-34.65 834-26.3 842.1-26.3 842.1-18.2 834-18.2 834-8.35 843-8.35 843 0Z" opacity="1" transform="matrix(1,0,0,1,0,0)" fill="#efefef" class="undefined-text-1" data-fill-palette-color="secondary" id="text-1"></path></svg></g></svg></g></svg></g></svg></g><g><svg viewBox="0 0 158.7014199186642 208.39619614415872" height="208.39619614415872" width="158.7014199186642"><g><svg xmlns="http://www.w3.org/2000/svg" xmlns:xlink="http://www.w3.org/1999/xlink" version="1.1" x="0" y="0" viewBox="18.083999633789062 8.08986759185791 63.831382751464844 83.81914520263672" enable-background="new 0 0 100 100" xml:space="preserve" height="208.39619614415872" width="158.7014199186642" class="icon-icon-0" data-fill-palette-color="accent" id="icon-0"><g fill="#efefef" data-fill-palette-color="accent"><path fill="#efefef" d="M75.831 81.262c-0.461 4.555-4.121 7.827-8.179 7.309l-34.53-4.418c-4.055-0.521-6.968-4.632-6.507-9.187l6.035-59.515c0.464-4.555 4.123-7.826 8.182-7.307l34.529 4.417c4.057 0.52 6.969 4.632 6.506 9.187L75.831 81.262z" data-fill-palette-color="accent"></path><path fill="#efefef" d="M28.725 87.08c-4.055-0.519-6.969-4.632-6.508-9.187l6.036-59.514c0.108-1.073 0.401-2.072 0.829-2.969h-3.607c-4.083 0-7.391 3.716-7.391 8.301v59.896c0 4.586 3.308 8.302 7.391 8.302h34.754c0.866 0 1.693-0.177 2.467-0.484L28.725 87.08z" data-fill-palette-color="accent"></path></g></svg></g></svg></g></svg></g><defs></defs></svg><rect width="395.52" height="142.3345617327643" fill="none" stroke="none" visibility="hidden"></rect></g></svg></g></svg>