<?xml version="1.0" standalone="no"?>
<!DOCTYPE svg PUBLIC "-//W3C//DTD SVG 20010904//EN"
 "http://www.w3.org/TR/2001/REC-SVG-20010904/DTD/svg10.dtd">
<svg version="1.0" xmlns="http://www.w3.org/2000/svg"
 width="260.000000pt" height="260.000000pt" viewBox="0 0 260.000000 260.000000"
 preserveAspectRatio="xMidYMid meet">
<metadata>
Created by potrace 1.14, written by Peter Selinger 2001-2017
</metadata>
<g transform="translate(0.000000,260.000000) scale(0.100000,-0.100000)"
fill="#000000" stroke="none">
<path d="M1100 1973 c-49 -18 -77 -69 -85 -154 -3 -35 -7 -75 -10 -89 -2 -14
-7 -59 -10 -101 -3 -42 -8 -87 -10 -100 -2 -13 -7 -58 -10 -99 -3 -41 -8 -88
-10 -105 -3 -29 -9 -88 -21 -210 -3 -33 -8 -73 -10 -90 -9 -52 -12 -159 -7
-188 3 -15 18 -41 34 -57 28 -27 42 -32 149 -45 25 -4 56 -8 70 -10 14 -2 50
-7 80 -10 30 -4 65 -8 78 -10 12 -2 50 -6 85 -10 34 -4 70 -9 81 -11 80 -15
122 -14 153 5 42 26 59 62 67 140 4 36 9 79 11 95 2 17 6 60 10 96 5 64 10
114 19 195 2 22 7 74 11 115 4 41 9 82 10 91 2 8 6 53 10 100 4 46 9 92 10
101 2 9 6 54 10 100 5 70 3 88 -13 118 -24 44 -63 66 -127 74 -27 3 -156 19
-285 36 -241 31 -264 32 -290 23z"/>
<path d="M897 1859 c-27 -4 -57 -15 -67 -24 -47 -42 -47 -44 -46 -603 1 -500
2 -528 20 -555 38 -56 47 -57 387 -57 172 0 310 2 308 4 -2 2 -29 7 -59 11
-90 11 -106 14 -193 25 -45 6 -100 13 -122 16 -22 3 -51 7 -65 9 -14 2 -46 6
-71 9 -67 8 -94 23 -119 68 -20 36 -22 48 -16 124 4 46 8 91 10 101 2 10 7 54
11 98 3 44 8 94 10 110 2 17 7 62 10 100 4 39 8 77 10 85 2 8 6 51 9 95 4 44
9 94 11 110 2 17 6 56 9 88 12 121 18 172 22 179 8 12 -11 15 -59 7z"/>
</g>
</svg>
